Coordinates
version=1
nRows=6
nColumns=107
inDegrees=yes

Units are S.I. units (second, meters, Newtons, ...)
If the header above contains a line with 'inDegrees', this indicates whether rotational values are in degrees (yes) or radians (no).

endheader
time	sternoclavicular_r2	sternoclavicular_r3	unrotscap_r3	unrotscap_r2	acromioclavicular_r2	acromioclavicular_r3	acromioclavicular_r1	unrothum_r1	unrothum_r3	unrothum_r2	elv_angle	shoulder_elv	shoulder1_r2	shoulder_rot	elbow_flexion	pro_sup	deviation	flexion	proximal_distal_r1	proximal_distal_r3	cmc_flexion	cmc_abduction	mp_flexion	ip_flexion	mcp2_flexion	mcp2_abduction	pm2_flexion	md2_flexion	mcp3_flexion	mcp3_abduction	pm3_flexion	md3_flexion	mcp4_flexion	mcp4_abduction	pm4_flexion	md4_flexion	mcp5_flexion	mcp5_abduction	pm5_flexion	md5_flexion	bicpt_tx	bicpt_ty	bicpt_tz	bicpt2_tx	bicpt2_ty	bicpt2_tz	ptpt_tx	ptpt_ty	ptpt_tz	FCUpt_tx	FCUpt_ty	FCUpt_tz	EDCpt_tx	EDCpt_ty	EDCpt_tz	APLpt_tx	APLpt_ty	APLpt_tz	FPLpt_tx	FPLpt_ty	FPLpt_tz	FPLpt2_tx	FPLpt2_ty	FPLpt2_tz	PEC1pt2_tx	PEC1pt2_ty	PEC1pt2_tz	PEC1pt3_tx	PEC1pt3_ty	PEC1pt3_tz	PEC2pt2_tx	PEC2pt2_ty	PEC2pt2_tz	PEC2pt3_tx	PEC2pt3_ty	PEC2pt3_tz	PEC3pt2_tx	PEC3pt2_ty	PEC3pt2_tz	PEC3pt3_tx	PEC3pt3_ty	PEC3pt3_tz	DELT2pt2a_tx	DELT2pt2a_ty	DELT2pt2a_tz	DELT2pt2_tx	DELT2pt2_ty	DELT2pt2_tz	LAT1pt2_tx	LAT1pt2_ty	LAT1pt2_tz	LAT1pt3_tx	LAT1pt3_ty	LAT1pt3_tz	LAT2pt2_tx	LAT2pt2_ty	LAT2pt2_tz	LAT2pt3_tx	LAT2pt3_ty	LAT2pt3_tz	LAT3pt2_tx	LAT3pt2_ty	LAT3pt2_tz	LAT3pt3_tx	LAT3pt3_ty	LAT3pt3_tz
      1.86666667	     -0.28255717	      0.11967788	     -0.11967788	      0.28255717	     -0.05721208	      0.46236791	      0.20783119	     -0.20783119	     -0.46236791	      0.05721208	    115.07014826	     66.89792251	     -2.00835296	    -88.23349593	     42.56967968	     84.45430167	      0.43048680	     -1.20797129	      0.43254640	     -0.60398565	     -1.62227501	      1.25295513	     -4.52629139	      2.15926071	    -18.60969946	     -0.83969533	     30.92052357	    -15.27523227	    -41.74655637	     -4.93398153	     18.27978656	     17.22314943	    -53.42829131	     -6.39738864	     16.27314799	     23.42003162	    -62.15895611	    -14.01656929	      5.42652815	      5.16201239	      0.00130807	     -0.03247914	     -0.00508590	      0.01439695	     -0.02176426	     -0.00133906	      0.00130978	     -0.06893503	     -0.00685325	      0.01256081	     -0.18228974	      0.00004212	     -0.01013449	      0.00349356	     -0.00070823	      0.00001392	      0.00000557	      0.00002784	      0.00001782	      0.00005345	      0.00003006	     -0.00006779	      0.00004202	      0.00005042	      0.00219277	      0.00769327	      0.00535184	     -0.00717295	      0.01731914	     -0.01642717	      0.00219277	      0.00769327	      0.00535184	      0.00048315	      0.01605551	     -0.00843658	      0.00358129	      0.00427813	      0.01500366	      0.00000000	      0.00597688	      0.00000000	     -0.00628098	     -0.02902629	     -0.00491593	      0.02201379	     -0.00284819	     -0.04449331	     -0.00078048	      0.01308227	     -0.00535184	      0.00215560	      0.01888010	     -0.01560953	     -0.00524034	      0.01133549	     -0.00479436	     -0.01092667	      0.02393461	     -0.02679636	     -0.02051538	      0.01267345	     -0.00642964	     -0.01360259	      0.02765116	     -0.03348616
      1.90000000	     -0.28253787	      0.11966971	     -0.11966971	      0.28253787	     -0.05720817	      0.46233631	      0.20781699	     -0.20781699	     -0.46233631	      0.05720817	    115.04977659	     66.89335153	     -2.00799741	    -88.19582184	     42.54791054	     84.25287175	      0.43037497	     -1.20765588	      0.43247344	     -0.60382794	     -1.92052002	      1.42544908	     -4.98081345	      3.50751141	    -18.16159731	     -0.96900116	     30.25024235	    -14.13633594	    -41.70819552	     -4.96583315	     18.97113870	     16.85893640	    -53.65853485	     -6.39839120	     17.68966801	     21.50371373	    -62.09124757	    -14.00628803	      5.09466727	      5.17177841	      0.00130735	     -0.03247664	     -0.00508550	      0.01441702	     -0.02175835	     -0.00137309	      0.00132466	     -0.06892541	     -0.00683702	      0.01253777	     -0.18229647	      0.00003682	     -0.01011032	      0.00348261	     -0.00070194	      0.00001423	      0.00000569	      0.00002847	      0.00001822	      0.00005466	      0.00003075	     -0.00008487	      0.00005006	      0.00006007	      0.00219262	      0.00769274	      0.00535147	     -0.00717246	      0.01731796	     -0.01642605	      0.00219262	      0.00769274	      0.00535147	      0.00048312	      0.01605442	     -0.00843600	      0.00358111	      0.00427784	      0.01500313	      0.00000000	      0.00597606	      0.00000000	     -0.00628055	     -0.02902431	     -0.00491525	      0.02202645	     -0.00284707	     -0.04447155	     -0.00078042	      0.01308138	     -0.00535147	      0.00215545	      0.01887881	     -0.01560846	     -0.00523998	      0.01133472	     -0.00479403	     -0.01092592	      0.02393297	     -0.02679453	     -0.02051398	      0.01267258	     -0.00642920	     -0.01360166	      0.02764928	     -0.03348387
      1.93333333	     -0.28275028	      0.11975967	     -0.11975967	      0.28275028	     -0.05725118	      0.46268390	      0.20797323	     -0.20797323	     -0.46268390	      0.05725118	    115.02197323	     66.94364161	     -2.00751215	    -88.21852425	     42.41826737	     84.20306499	      0.43012209	     -1.20716329	      0.43230834	     -0.60358165	     -1.93357525	      1.42914469	     -4.99030594	      3.50298213	    -18.14594356	     -0.97105417	     30.25552821	    -14.13275473	    -41.67239621	     -4.97634718	     18.98246529	     16.86010098	    -53.64120510	     -6.39977302	     17.69754390	     21.50499621	    -62.09118278	    -14.00748593	      5.09573856	      5.17204651	      0.00130306	     -0.03246178	     -0.00508311	      0.01442196	     -0.02172313	     -0.00138150	      0.00132834	     -0.06892303	     -0.00683301	      0.01253207	     -0.18229813	      0.00003552	     -0.01010434	      0.00347990	     -0.00070039	      0.00001473	      0.00000589	      0.00002945	      0.00001885	      0.00005655	      0.00003181	     -0.00008566	      0.00005042	      0.00006050	      0.00219427	      0.00769853	      0.00535550	     -0.00717785	      0.01733098	     -0.01643840	      0.00219427	      0.00769853	      0.00535550	      0.00048348	      0.01606649	     -0.00844234	      0.00358318	      0.00428105	      0.01500895	      0.00000000	      0.00598508	      0.00000000	     -0.00628527	     -0.02904613	     -0.00492276	      0.02201881	     -0.00284775	     -0.04448466	     -0.00078101	      0.01309121	     -0.00535550	      0.00215707	      0.01889300	     -0.01562020	     -0.00524392	      0.01134324	     -0.00479763	     -0.01093414	      0.02395097	     -0.02681467	     -0.02052940	      0.01268211	     -0.00643403	     -0.01361189	      0.02767006	     -0.03350904
      1.96666667	     -0.28281338	      0.11978640	     -0.11978640	      0.28281338	     -0.05726396	      0.46278716	      0.20801964	     -0.20801964	     -0.46278716	      0.05726396	    115.03117328	     66.95858235	     -2.00767272	    -88.17866009	     42.36095766	     83.92473900	      0.43031125	     -1.20747621	      0.43243183	     -0.60373810	     -3.12825720	      1.44667295	     -3.00659788	      0.75604193	    -17.57511675	     -1.23488430	     30.49735387	    -16.43961425	    -40.09012752	     -5.45587994	     16.23351374	     17.46758895	    -53.14236203	     -6.44296328	     15.98435913	     25.55884213	    -62.87970138	    -14.03385749	      7.01639795	      5.09065001	      0.00130117	     -0.03245521	     -0.00508205	      0.01444950	     -0.02170756	     -0.00142841	      0.00134891	     -0.06890973	     -0.00681059	      0.01250027	     -0.18230740	      0.00002826	     -0.01007095	      0.00346480	     -0.00069175	      0.00001441	      0.00000577	      0.00002883	      0.00001845	      0.00005535	      0.00003113	     -0.00017012	      0.00008362	      0.00010034	      0.00219476	      0.00770024	      0.00535669	     -0.00717945	      0.01733485	     -0.01644207	      0.00219476	      0.00770024	      0.00535669	      0.00048359	      0.01607007	     -0.00844423	      0.00358380	      0.00428201	      0.01501068	      0.00000000	      0.00598776	      0.00000000	     -0.00628667	     -0.02905261	     -0.00492500	      0.02203217	     -0.00284656	     -0.04446160	     -0.00078118	      0.01309413	     -0.00535669	      0.00215756	      0.01889722	     -0.01562368	     -0.00524509	      0.01134577	     -0.00479870	     -0.01093658	      0.02395631	     -0.02682065	     -0.02053398	      0.01268494	     -0.00643547	     -0.01361492	      0.02767624	     -0.03351652
      2.00000000	     -0.28277432	      0.11976986	     -0.11976986	      0.28277432	     -0.05725605	      0.46272324	      0.20799091	     -0.20799091	     -0.46272324	      0.05725605	    114.99392448	     66.94933451	     -2.00702260	    -88.18637348	     42.34524107	     83.91758259	      0.43018236	     -1.20745513	      0.43234769	     -0.60372756	     -3.13091007	      1.44731118	     -3.01011675	      0.75532118	    -17.57088133	     -1.23613311	     30.49854668	    -16.43846334	    -40.08461717	     -5.45705707	     16.23598968	     17.46796505	    -53.14046474	     -6.44308661	     15.98504169	     25.55807538	    -62.88076113	    -14.03350180	      7.01455368	      5.09058717	      0.00130065	     -0.03245341	     -0.00508176	      0.01445020	     -0.02170329	     -0.00142961	      0.00134944	     -0.06890939	     -0.00681001	      0.01249945	     -0.18230764	      0.00002807	     -0.01007009	      0.00346441	     -0.00069153	      0.00001443	      0.00000577	      0.00002887	      0.00001848	      0.00005543	      0.00003118	     -0.00017086	      0.00008372	      0.00010046	      0.00219445	      0.00769918	      0.00535595	     -0.00717846	      0.01733245	     -0.01643979	      0.00219445	      0.00769918	      0.00535595	      0.00048352	      0.01606785	     -0.00844306	      0.00358341	      0.00428142	      0.01500961	      0.00000000	      0.00598610	      0.00000000	     -0.00628580	     -0.02904860	     -0.00492361	      0.02202959	     -0.00284679	     -0.04446606	     -0.00078108	      0.01309233	     -0.00535595	      0.00215726	      0.01889461	     -0.01562152	     -0.00524437	      0.01134420	     -0.00479804	     -0.01093507	      0.02395300	     -0.02681695	     -0.02053115	      0.01268319	     -0.00643458	     -0.01361304	      0.02767241	     -0.03351189
      2.03333333	     -0.28294679	      0.11984291	     -0.11984291	      0.28294679	     -0.05729097	      0.46300547	      0.20811777	     -0.20811777	     -0.46300547	      0.05729097	    115.05959275	     66.99016861	     -2.00816873	    -88.34090039	     42.29964244	     83.96529025	      0.43040636	     -1.20768426	      0.43249391	     -0.60384213	     -2.69978682	      1.90297854	     -4.76850928	     -0.37604136	    -17.13410469	     -1.64141874	     30.93765267	    -17.66703606	    -39.89492323	     -5.78362712	     17.10210598	     18.08602544	    -52.61842922	     -6.56887987	     15.19122706	     25.98673969	    -62.77422712	    -14.03196310	      6.30129225	      5.10879642	      0.00129914	     -0.03244819	     -0.00508092	      0.01444550	     -0.02169091	     -0.00142158	      0.00134591	     -0.06891167	     -0.00681385	      0.01250490	     -0.18230605	      0.00002931	     -0.01007581	      0.00346699	     -0.00069300	      0.00001421	      0.00000568	      0.00002841	      0.00001818	      0.00005455	      0.00003068	     -0.00013690	      0.00007154	      0.00008584	      0.00219579	      0.00770388	      0.00535922	     -0.00718284	      0.01734302	     -0.01644982	      0.00219579	      0.00770388	      0.00535922	      0.00048382	      0.01607765	     -0.00844821	      0.00358510	      0.00428403	      0.01501433	      0.00000000	      0.00599343	      0.00000000	     -0.00628964	     -0.02906631	     -0.00492972	      0.02197767	     -0.00285139	     -0.04455534	     -0.00078155	      0.01310031	     -0.00535922	      0.00215857	      0.01890613	     -0.01563105	     -0.00524757	      0.01135112	     -0.00480097	     -0.01094174	      0.02396761	     -0.02683331	     -0.02054367	      0.01269093	     -0.00643850	     -0.01362135	      0.02768929	     -0.03353233
